<svg width="24" height="24" viewBox="0 0 24 24" fill="none" xmlns="http://www.w3.org/2000/svg">
<path d="M14 2.25H5C3.48 2.25 2.25 3.48 2.25 5V14C2.25 15.52 3.48 16.75 5 16.75H14C15.52 16.75 16.75 15.52 16.75 14V5C16.75 3.48 15.52 2.25 14 2.25ZM7.75 3.75H11.25V6C11.25 6.14 11.14 6.25 11 6.25H8C7.86 6.25 7.75 6.14 7.75 6V3.75ZM15.25 14C15.25 14.69 14.69 15.25 14 15.25H5C4.31 15.25 3.75 14.69 3.75 14V5C3.75 4.31 4.31 3.75 5 3.75H6.25V6C6.25 6.96 7.04 7.75 8 7.75H11C11.96 7.75 12.75 6.96 12.75 6V3.75H14C14.69 3.75 15.25 4.31 15.25 5V14Z" fill="black" fill-opacity="0.5"/>
<path d="M8 12.25H6C5.59 12.25 5.25 12.58 5.25 13C5.25 13.42 5.59 13.75 6 13.75H8C8.41 13.75 8.75 13.42 8.75 13C8.75 12.58 8.41 12.25 8 12.25ZM21.53 12.47C21.32 12.26 21.01 12.21 20.75 12.3V6.7C20.83 6.73 20.91 6.75 21 6.75C21.19 6.75 21.38 6.68 21.53 6.53C21.82 6.24 21.82 5.76 21.53 5.47L20.53 4.47C20.39 4.33 20.2 4.25 20 4.25C19.8 4.25 19.61 4.33 19.47 4.47L18.47 5.47C18.18 5.76 18.18 6.24 18.47 6.53C18.68 6.74 18.99 6.79 19.25 6.7V12.3C18.99 12.21 18.68 12.26 18.47 12.47C18.18 12.76 18.18 13.24 18.47 13.53L19.47 14.53C19.62 14.68 19.81 14.75 20 14.75C20.19 14.75 20.38 14.68 20.53 14.53L21.53 13.53C21.82 13.24 21.82 12.76 21.53 12.47ZM13.53 18.47C13.24 18.18 12.76 18.18 12.47 18.47C12.26 18.68 12.21 18.99 12.3 19.25H6.7C6.79 18.99 6.74 18.68 6.53 18.47C6.24 18.18 5.76 18.18 5.47 18.47L4.47 19.47C4.18 19.76 4.18 20.24 4.47 20.53L5.47 21.53C5.62 21.68 5.81 21.75 6 21.75C6.19 21.75 6.38 21.68 6.53 21.53C6.74 21.32 6.79 21.01 6.7 20.75H12.3C12.21 21.01 12.26 21.32 12.47 21.53C12.62 21.68 12.81 21.75 13 21.75C13.19 21.75 13.38 21.68 13.53 21.53L14.53 20.53C14.67 20.39 14.75 20.2 14.75 20C14.75 19.8 14.67 19.61 14.53 19.47L13.53 18.47Z" fill="black" fill-opacity="0.5"/>
</svg>
