<svg width="96" height="96" viewBox="0 0 96 96" fill="none" xmlns="http://www.w3.org/2000/svg">
<g clip-path="url(#clip0_3241_5619)">
<path d="M93.0975 24.3488C90.5794 15.0712 80.9306 5.4225 71.6531 2.90438C65.9662 1.485 58.3444 0.024375 48 0C37.6575 0.02625 30.0356 1.485 24.3488 2.90438C15.0712 5.42438 5.4225 15.0712 2.90438 24.3488C1.485 30.0356 0.02625 37.6575 0 48C0.02625 58.3444 1.485 65.9662 2.90438 71.6531C5.4225 80.9306 15.0712 90.5775 24.3488 93.0975C30.0356 94.5169 37.6613 95.9756 48 96.0019C58.3444 95.9756 65.9662 94.5169 71.6531 93.0975C80.9306 90.5775 90.5794 80.9306 93.0975 71.6531C94.5169 65.9662 95.9756 58.3406 96.0019 48C95.9756 37.6575 94.5169 30.0356 93.0975 24.3488Z" fill="white"/>
<path d="M83.3776 68.6664C81.4014 65.3682 73.8339 61.9407 66.5551 61.0464C60.3925 60.3463 54.1948 60.0014 47.9926 60.0132C41.7904 60.0013 35.5927 60.3462 29.4301 61.0464C22.1514 61.9407 14.5839 65.3682 12.6076 68.6664C11.5089 70.6876 10.3632 73.3951 10.3445 77.0626C10.3632 80.7376 11.5089 83.4376 12.6226 85.4682C14.5989 88.7645 22.1664 92.192 29.4451 93.0882C35.6078 93.7865 41.8055 94.1309 48.0076 94.1195C54.2097 94.1309 60.4074 93.7865 66.5701 93.0882C73.8489 92.192 81.4164 88.7645 83.3926 85.4682C84.5064 83.447 85.652 80.7376 85.6707 77.0626C85.637 73.3951 84.4914 70.6876 83.3776 68.6664Z" fill="url(#paint0_radial_3241_5619)"/>
<path d="M47.9024 79.89C51.9937 79.8769 62.7674 79.4344 64.9106 78.9881C68.4731 78.2006 71.7299 74.7506 72.4237 71.1806C72.8568 69.0056 73.3949 57.5925 73.3499 53.58C73.3949 49.5675 72.8568 38.1525 72.4237 35.9794C71.7299 32.4169 68.4693 28.9594 64.9106 28.17C64.5956 28.1062 64.1943 28.0406 63.7274 27.9825C59.5874 27.6075 52.0462 27.3019 48.5399 27.2944C44.8368 27.2944 37.5749 27.6431 33.9149 28.0444C33.674 28.0706 33.4303 28.0491 33.1976 27.9811C32.965 27.9131 32.748 27.8 32.5591 27.6482C32.3702 27.4964 32.2131 27.3088 32.0966 27.0963C31.9802 26.8837 31.9068 26.6503 31.8806 26.4094C31.8543 26.1684 31.8758 25.9247 31.9438 25.6921C32.0118 25.4594 32.1249 25.2425 32.2767 25.0536C32.4286 24.8646 32.6161 24.7075 32.8287 24.5911C33.0412 24.4746 33.2746 24.4012 33.5156 24.375C37.5543 23.9287 44.9531 23.6062 48.5287 23.6006C51.7274 23.6006 58.6912 23.8631 63.2437 24.2362C62.3306 20.8819 59.2331 17.7581 55.8693 17.0137C53.7074 16.5637 47.4937 16.1231 43.4793 16.1175C39.4649 16.1119 33.2531 16.5637 31.0912 17.0137C27.5287 17.8012 24.2718 21.2531 23.5781 24.8212C23.1449 26.9962 22.6068 39.4069 22.6518 43.4194C22.6518 43.6069 22.6518 43.8131 22.6518 44.0287C22.6518 49.6537 23.2724 66.8081 23.7768 69.3412C24.6149 73.6669 28.5693 77.85 32.8837 78.8062C35.5031 79.3481 43.0368 79.875 47.9024 79.89Z" fill="url(#paint1_linear_3241_5619)"/>
<path d="M31.875 26.0794C31.904 25.6476 32.0839 25.2398 32.3831 24.9273C32.6823 24.6147 33.0818 24.4172 33.5119 24.3694C37.5507 23.9231 44.9494 23.6006 48.525 23.595C51.7238 23.595 58.6875 23.8575 63.24 24.2306C62.3269 20.8762 59.2294 17.7525 55.8657 17.0081C53.7038 16.5581 47.49 16.1175 43.4757 16.1119C39.4613 16.1062 33.2494 16.5581 31.0875 17.0081C27.525 17.7956 24.2682 21.2475 23.5744 24.8156C23.1413 26.9906 22.6032 39.4012 22.6482 43.4137C22.6482 43.6012 22.6482 43.8075 22.6482 44.0231C22.6482 49.6481 23.2688 66.8025 23.7732 69.3356C24.6113 73.6612 28.5657 77.8444 32.88 78.8006C32.88 78.8006 32.2744 70.1344 31.7813 61.0875C30.6319 39.9375 31.875 26.0794 31.875 26.0794Z" fill="url(#paint2_linear_3241_5619)"/>
<path d="M63.7276 27.9768C59.5876 27.6018 52.0463 27.2962 48.5401 27.2887C44.837 27.2887 37.5732 27.6375 33.9151 28.0387C33.4424 28.0666 32.9772 27.9117 32.6155 27.6061C32.2539 27.3005 32.0236 26.8675 31.9723 26.3968C31.921 25.9262 32.0526 25.4538 32.3399 25.0774C32.6272 24.7011 33.0482 24.4496 33.5157 24.375C37.5545 23.9287 44.9532 23.6062 48.5288 23.6006C51.7276 23.6006 58.6913 23.8631 63.2438 24.2362C63.2438 24.2306 63.6901 26.3456 63.7276 27.9768Z" fill="url(#paint3_linear_3241_5619)"/>
<path d="M61.4119 46.2395H40.2001C39.8836 46.2484 39.5685 46.1937 39.2736 46.0788C38.9786 45.9638 38.7096 45.7909 38.4826 45.5702C38.2556 45.3495 38.0752 45.0855 37.952 44.7939C37.8288 44.5022 37.7653 44.1889 37.7653 43.8723C37.7653 43.5557 37.8288 43.2423 37.952 42.9507C38.0752 42.659 38.2556 42.3951 38.4826 42.1744C38.7096 41.9537 38.9786 41.7807 39.2736 41.6658C39.5685 41.5508 39.8836 41.4962 40.2001 41.5051H61.4119C62.0282 41.5224 62.6134 41.7794 63.0432 42.2215C63.473 42.6635 63.7134 43.2557 63.7134 43.8723C63.7134 44.4888 63.473 45.081 63.0432 45.5231C62.6134 45.9651 62.0282 46.2221 61.4119 46.2395ZM54.6357 56.1901H40.1982C39.8817 56.199 39.5667 56.1444 39.2717 56.0294C38.9767 55.9144 38.7078 55.7415 38.4808 55.5208C38.2538 55.3001 38.0733 55.0361 37.9501 54.7445C37.8269 54.4529 37.7634 54.1395 37.7634 53.8229C37.7634 53.5063 37.8269 53.1929 37.9501 52.9013C38.0733 52.6097 38.2538 52.3457 38.4808 52.125C38.7078 51.9043 38.9767 51.7314 39.2717 51.6164C39.5667 51.5014 39.8817 51.4468 40.1982 51.4557H54.6357C55.252 51.4731 55.8372 51.7301 56.267 52.1721C56.6967 52.6141 56.9372 53.2064 56.9372 53.8229C56.9372 54.4394 56.6967 55.0316 56.267 55.4737C55.8372 55.9157 55.252 56.1727 54.6357 56.1901Z" fill="url(#paint4_linear_3241_5619)"/>
</g>
<defs>
<radialGradient id="paint0_radial_3241_5619" cx="0" cy="0" r="1" gradientUnits="userSpaceOnUse" gradientTransform="translate(48.0001 78.9756) scale(37.6556 16.945)">
<stop stop-color="#FE6D1F" stop-opacity="0.5"/>
<stop offset="1" stop-color="#FE6D1F" stop-opacity="0"/>
</radialGradient>
<linearGradient id="paint1_linear_3241_5619" x1="60.3961" y1="75.1335" x2="18.7754" y2="42.0423" gradientUnits="userSpaceOnUse">
<stop stop-color="#FE6D1F"/>
<stop offset="0.54" stop-color="#FE6D1F"/>
<stop offset="1" stop-color="#FE6D1F" stop-opacity="0.5"/>
</linearGradient>
<linearGradient id="paint2_linear_3241_5619" x1="52.8667" y1="74.125" x2="14.5479" y2="49.3114" gradientUnits="userSpaceOnUse">
<stop stop-color="#FE6D1F"/>
<stop offset="0.54" stop-color="#FE6D1F"/>
<stop offset="1" stop-color="#FE6D1F" stop-opacity="0.5"/>
</linearGradient>
<linearGradient id="paint3_linear_3241_5619" x1="56.8313" y1="34.8731" x2="39.6357" y2="17.6775" gradientUnits="userSpaceOnUse">
<stop stop-color="#34344F"/>
<stop offset="1" stop-color="#666684"/>
</linearGradient>
<linearGradient id="paint4_linear_3241_5619" x1="56.8819" y1="54.9245" x2="41.3419" y2="39.3826" gradientUnits="userSpaceOnUse">
<stop stop-color="#BCE4ED"/>
<stop offset="0.57" stop-color="white"/>
<stop offset="1" stop-color="white"/>
</linearGradient>
<clipPath id="clip0_3241_5619">
<rect width="96" height="96" fill="white"/>
</clipPath>
</defs>
</svg>
