<svg width="96" height="96" viewBox="0 0 96 96" fill="none" xmlns="http://www.w3.org/2000/svg">
<g clip-path="url(#clip0_3241_5607)">
<path d="M93.0975 24.3488C90.5794 15.0712 80.9306 5.4225 71.6531 2.90438C65.9662 1.485 58.3444 0.024375 48 0C37.6575 0.02625 30.0356 1.485 24.3488 2.90438C15.0712 5.42438 5.4225 15.0712 2.90438 24.3488C1.485 30.0356 0.02625 37.6575 0 48C0.02625 58.3444 1.485 65.9662 2.90438 71.6531C5.4225 80.9306 15.0712 90.5775 24.3488 93.0975C30.0356 94.5169 37.6613 95.9756 48 96.0019C58.3444 95.9756 65.9662 94.5169 71.6531 93.0975C80.9306 90.5775 90.5794 80.9306 93.0975 71.6531C94.5169 65.9662 95.9756 58.3406 96.0019 48C95.9756 37.6575 94.5169 30.0356 93.0975 24.3488Z" fill="white"/>
<path d="M83.3776 68.6664C81.4014 65.3682 73.8339 61.9407 66.5551 61.0464C60.3925 60.3463 54.1948 60.0014 47.9926 60.0132C41.7904 60.0013 35.5927 60.3462 29.4301 61.0464C22.1514 61.9407 14.5839 65.3682 12.6076 68.6664C11.5089 70.6876 10.3632 73.3951 10.3445 77.0626C10.3632 80.7376 11.5089 83.4376 12.6226 85.4682C14.5989 88.7645 22.1664 92.192 29.4451 93.0882C35.6078 93.7865 41.8055 94.1309 48.0076 94.1195C54.2097 94.1309 60.4074 93.7865 66.5701 93.0882C73.8489 92.192 81.4164 88.7645 83.3926 85.4682C84.5064 83.447 85.652 80.7376 85.6707 77.0626C85.637 73.3951 84.4914 70.6876 83.3776 68.6664Z" fill="url(#paint0_radial_3241_5607)"/>
<path d="M71.9343 45.8156H68.3493C68.1487 43.4587 67.8787 41.4693 67.5993 39.7874C66.6337 34.3274 61.6743 29.3681 56.2143 28.4024C54.5268 28.1231 52.5431 27.8531 50.1862 27.6524V24.0674C50.1862 23.0227 49.9804 21.9882 49.5806 21.023C49.1808 20.0577 48.5948 19.1807 47.856 18.442C47.1173 17.7032 46.2403 17.1172 45.2751 16.7174C44.3098 16.3176 43.2753 16.1118 42.2306 16.1118C41.1857 16.1116 40.1511 16.3172 39.1858 16.7169C38.2205 17.1166 37.3433 17.7026 36.6045 18.4414C35.8657 19.1802 35.2797 20.0573 34.88 21.0227C34.4803 21.988 34.2747 23.0226 34.2749 24.0674V27.6524C31.9181 27.8531 29.9287 28.1231 28.2468 28.4024C22.7868 29.3681 17.8256 34.3274 16.8618 39.7874C16.5806 41.4749 16.3106 43.4587 16.1118 45.8156H20.2931C22.403 45.8156 24.4266 46.6537 25.9185 48.1457C27.4105 49.6377 28.2487 51.6612 28.2487 53.7712C28.2489 54.816 28.0433 55.8506 27.6436 56.816C27.2439 57.7813 26.6579 58.6584 25.9191 59.3972C25.1803 60.136 24.3032 60.722 23.3378 61.1217C22.3725 61.5215 21.3379 61.7271 20.2931 61.7268H16.1118C16.3106 64.0837 16.5806 66.0731 16.8618 67.7549C17.8256 73.2168 22.7868 78.1762 28.2468 79.1399C29.9343 79.4212 31.9181 79.6912 34.2749 79.8899V75.7087C34.2749 73.5987 35.1131 71.5752 36.6051 70.0832C38.0971 68.5912 40.1206 67.7531 42.2306 67.7531C44.3405 67.7531 46.3641 68.5912 47.856 70.0832C49.348 71.5752 50.1862 73.5987 50.1862 75.7087V79.8899C52.5431 79.6912 54.5324 79.4212 56.2143 79.1399C61.6743 78.1762 66.6337 73.2168 67.5993 67.7549C67.8787 66.0674 68.1487 64.0837 68.3493 61.7268H71.9343C72.9791 61.7271 74.0138 61.5215 74.9791 61.1217C75.9444 60.722 76.8215 60.136 77.5603 59.3972C78.2991 58.6584 78.8851 57.7813 79.2849 56.816C79.6846 55.8506 79.8902 54.816 79.8899 53.7712C79.8899 52.7264 79.6842 51.6919 79.2844 50.7267C78.8846 49.7615 78.2985 48.8845 77.5598 48.1457C76.821 47.407 75.944 46.821 74.9788 46.4212C74.0136 46.0213 72.9791 45.8156 71.9343 45.8156Z" fill="url(#paint1_linear_3241_5607)"/>
</g>
<defs>
<radialGradient id="paint0_radial_3241_5607" cx="0" cy="0" r="1" gradientUnits="userSpaceOnUse" gradientTransform="translate(48.0001 78.9756) scale(37.6556 16.945)">
<stop stop-color="#FE6D1F" stop-opacity="0.5"/>
<stop offset="1" stop-color="#FE6D1F" stop-opacity="0"/>
</radialGradient>
<linearGradient id="paint1_linear_3241_5607" x1="63.5924" y1="75.1331" x2="20.8687" y2="32.4093" gradientUnits="userSpaceOnUse">
<stop stop-color="#FE6D1F"/>
<stop offset="0.54" stop-color="#FE6D1F"/>
<stop offset="1" stop-color="#FE6D1F" stop-opacity="0.5"/>
</linearGradient>
<clipPath id="clip0_3241_5607">
<rect width="96" height="96" fill="white"/>
</clipPath>
</defs>
</svg>
