<svg width="61" height="30" viewBox="0 0 61 30" fill="none" xmlns="http://www.w3.org/2000/svg">
<path d="M2.80799 7.31226V11.0922H0.439453V0.0279541H4.03755C6.58992 0.0279541 8.29639 1.28883 8.29639 3.67077C8.29639 6.05272 6.58992 7.31359 4.03755 7.31359H2.80799V7.31226ZM2.80799 2.01047V5.3151H4.16144C5.19118 5.3151 5.89854 4.7772 5.89854 3.67077C5.89854 2.56435 5.16054 2.01047 4.10016 2.01047H2.80799Z" fill="#FF6D1F"/>
<path d="M2.83587 11.1215H0.411377V0H4.03745C6.7217 0 8.3256 1.37271 8.3256 3.67078C8.3256 5.96884 6.72304 7.34156 4.03745 7.34156H2.83587V11.1215ZM0.467328 11.0656H2.77858V7.28564H4.03745C6.68707 7.28564 8.26832 5.93423 8.26832 3.67211C8.26832 1.40999 6.68707 0.0572519 4.03745 0.0572519H0.467328V11.0656ZM4.16001 5.34307H2.77858V1.98251H4.09873C5.24304 1.98251 5.92642 2.61362 5.92642 3.67078C5.92642 4.72794 5.283 5.34307 4.16001 5.34307ZM2.83587 5.28715H4.16001C5.2457 5.28715 5.86914 4.69865 5.86914 3.67078C5.86914 2.64291 5.20707 2.03977 4.09873 2.03977H2.83587V5.28715Z" fill="#FF6D1F"/>
<path d="M14.8317 11.0936L14.7704 10.2175C14.7544 9.94053 14.801 9.75679 14.8317 9.67957H14.801C14.4787 10.3866 13.4636 11.3079 12.1874 11.3079C10.4503 11.3079 9.51245 10.2481 9.51245 8.21898V3.40982H11.8184V7.83553C11.8184 8.60377 12.0342 9.21889 12.8641 9.21889C13.9098 9.21889 14.6318 8.3894 14.6318 7.23638V3.40982H16.9231V11.0936H14.8317Z" fill="#FF6D1F"/>
<path d="M12.1874 11.3372C10.4183 11.3372 9.48315 10.2587 9.48315 8.22031V3.38052H11.8464V7.83552C11.8464 8.75954 12.1701 9.1896 12.8628 9.1896C13.8872 9.1896 14.6026 8.38674 14.6026 7.23504V3.38052H16.9511V11.1215H14.805L14.7411 10.2188C14.7318 10.0417 14.7464 9.90591 14.7637 9.81271C14.3934 10.4824 13.4116 11.3359 12.1861 11.3359L12.1874 11.3372ZM9.54044 3.43778V8.21898C9.54044 10.2215 10.4556 11.28 12.1874 11.28C13.4649 11.28 14.4693 10.3373 14.7757 9.66758L14.7837 9.65027H14.8743L14.8583 9.68888C14.845 9.72084 14.7811 9.89925 14.7984 10.2148L14.8583 11.0643H16.8952V3.43778H14.6612V7.23637C14.6612 8.42002 13.9218 9.24685 12.8641 9.24685C12.1421 9.24685 11.7904 8.78484 11.7904 7.83552V3.43778H9.54044Z" fill="#FF6D1F"/>
<path d="M25.0411 11.0936H18.2751L21.7813 5.22324H18.5829V3.40982H25.0864L21.5962 9.28014H25.0397V11.0936H25.0411Z" fill="#FF6D1F"/>
<path d="M25.0691 11.1215H18.2246L21.7308 5.2512H18.555V3.38052H25.1371L21.6469 9.25084H25.0691V11.1215ZM18.3259 11.0656H25.0132V9.30942H21.547L25.0372 3.43911H18.6109V5.19528H21.8307L18.3245 11.0656H18.3259Z" fill="#FF6D1F"/>
<path d="M32.4532 11.0936H25.6873L29.1934 5.22324H25.995V3.40982H32.4985L29.0083 9.28014H32.4518V11.0936H32.4532Z" fill="#FF6D1F"/>
<path d="M32.4812 11.1215H25.6367L29.1429 5.2512H25.9671V3.38052H32.5492L29.059 9.25084H32.4812V11.1215ZM25.738 11.0656H32.4253V9.30942H28.9591L32.4493 3.43911H26.023V5.19528H29.2428L25.7366 11.0656H25.738Z" fill="#FF6D1F"/>
<path d="M33.8826 0.0279541H36.1738V8.38806C36.1738 9.09506 36.4816 9.34137 36.9425 9.34137C37.2502 9.34137 37.5726 9.24951 37.7111 9.18826V11.0789C37.5113 11.1708 36.9731 11.3092 36.2498 11.3092C34.9429 11.3092 33.8826 10.6488 33.8826 8.89667V0.0279541Z" fill="#FF6D1F"/>
<path d="M36.251 11.3372C35.3558 11.3372 33.8545 11.0203 33.8545 8.89668V0H36.2017V8.38807C36.2017 9.00985 36.4442 9.31209 36.9424 9.31209C37.2461 9.31209 37.5685 9.21889 37.699 9.1603L37.739 9.143V11.0949L37.723 11.1029C37.5485 11.1841 37.0156 11.3359 36.251 11.3359V11.3372ZM33.9118 0.0572519V8.89668C33.9118 10.9711 35.3771 11.2813 36.251 11.2813C36.9837 11.2813 37.4965 11.1415 37.683 11.0603V9.23087C37.5259 9.29212 37.2301 9.37067 36.9424 9.37067C36.4055 9.37067 36.1458 9.04979 36.1458 8.3894V0.0572519H33.9118Z" fill="#FF6D1F"/>
<path d="M45.9384 6.79035C45.9384 7.20576 45.8917 7.57457 45.8771 7.72769H40.8336C40.9255 8.77287 41.7248 9.37201 42.9704 9.37201C44.0614 9.37201 45.2004 9.04981 45.6306 8.80349V10.7554C45.1537 11.0017 44.124 11.3093 42.7559 11.3093C40.1116 11.3093 38.4504 9.60368 38.4504 7.25236C38.4504 4.90104 40.1569 3.19547 42.3563 3.19547C44.7248 3.19547 45.9384 4.88639 45.9384 6.79168V6.79035ZM42.3403 5.00755C41.4171 5.00755 40.8949 5.71455 40.8336 6.54404H43.7403C43.771 5.71455 43.2794 5.00755 42.3416 5.00755H42.3403Z" fill="#FF6D1F"/>
<path d="M42.7546 11.3372C40.1622 11.3372 38.4211 9.69555 38.4211 7.25103C38.4211 4.8065 40.113 3.16617 42.3549 3.16617C43.4726 3.16617 44.4064 3.5443 45.0552 4.25928C45.6426 4.90636 45.9664 5.80508 45.9664 6.79168C45.9664 7.15383 45.9304 7.48403 45.9117 7.66111L45.9011 7.75697H40.8629C40.9669 8.7662 41.7315 9.34405 42.9691 9.34405C44.0987 9.34405 45.2164 9.00719 45.6147 8.77952L45.6573 8.75555V10.774L45.6413 10.782C45.1444 11.039 44.0894 11.3385 42.7532 11.3385L42.7546 11.3372ZM42.3549 3.22342C40.1449 3.22342 38.4784 4.95562 38.4784 7.25236C38.4784 9.66226 40.1969 11.2813 42.7559 11.2813C44.0681 11.2813 45.1045 10.991 45.6027 10.7394V8.85275C45.1657 9.08309 44.0734 9.4013 42.9717 9.4013C41.7075 9.4013 40.8989 8.77686 40.8057 7.73034L40.803 7.69972H45.8518L45.8571 7.65445C45.8758 7.4787 45.9117 7.14984 45.9117 6.79035C45.9117 5.01421 44.8127 3.22209 42.3576 3.22209L42.3549 3.22342ZM43.767 6.57332H40.803L40.8057 6.5427C40.8629 5.76514 41.3598 4.97959 42.3403 4.97959C42.7572 4.97959 43.1129 5.11939 43.3674 5.38302C43.6431 5.66794 43.7843 6.08202 43.7683 6.54536V6.57332H43.767ZM40.8643 6.51607H43.7124C43.723 6.07803 43.5858 5.69058 43.3274 5.42296C43.0836 5.16998 42.7426 5.03684 42.3416 5.03684C41.7169 5.03684 40.9602 5.42562 40.8656 6.5174L40.8643 6.51607Z" fill="#FF6D1F"/>
<path d="M4.34513 26.6181H0.268799V15.2117H4.02276C6.66971 15.2117 8.31356 16.4672 8.31356 18.487C8.31356 19.3778 7.86997 20.166 7.13329 20.62C8.08844 21.0927 8.72919 22.1112 8.72919 23.2203C8.72919 25.348 7.09066 26.6181 4.34513 26.6181ZM0.609825 26.2773H4.34513C6.87619 26.2773 8.38683 25.1349 8.38683 23.2203C8.38683 21.9435 7.49963 21.0714 6.67504 20.8011L6.24742 20.6613L6.66172 20.4829C7.29581 20.2099 7.97387 19.5415 7.97387 18.4884C7.97387 16.651 6.49787 15.5552 4.02409 15.5552H0.612488V26.2786L0.609825 26.2773ZM4.45304 24.7288H2.52943V21.4215H4.60623C5.61866 21.4215 6.29938 22.0833 6.29938 23.0672C6.29938 24.0511 5.55738 24.7288 4.45304 24.7288ZM2.87046 24.3867H4.45304C5.36688 24.3867 5.95835 23.8687 5.95835 23.0672C5.95835 22.1059 5.26031 21.7624 4.60623 21.7624H2.87046V24.3867ZM4.11467 20.1647H2.52943V17.1037H4.17595C5.24832 17.1037 5.91439 17.7108 5.91439 18.6881C5.91439 19.3472 5.59734 19.8598 5.06582 20.0621L5.05117 20.0675C4.73945 20.154 4.41707 20.166 4.11334 20.166L4.11467 20.1647ZM2.87046 19.8225H4.11467C4.39043 19.8225 4.6835 19.8118 4.95259 19.7386C5.3469 19.5855 5.57336 19.202 5.57336 18.6868C5.57336 17.8972 5.06449 17.4432 4.17595 17.4432H2.87046V19.8225Z" fill="#FF6D1F"/>
<path d="M13.7087 26.8338C11.2402 26.8338 9.44849 25.0564 9.44849 22.6065C9.44849 20.1567 11.2402 18.3792 13.7087 18.3792C16.1771 18.3792 17.9848 20.1567 17.9848 22.6065C17.9848 25.0564 16.1864 26.8338 13.7087 26.8338ZM13.7087 18.72C11.4374 18.72 9.78951 20.355 9.78951 22.6065C9.78951 24.858 11.4374 26.493 13.7087 26.493C15.9799 26.493 17.6438 24.858 17.6438 22.6065C17.6438 20.355 15.9893 18.72 13.7087 18.72ZM13.7087 24.8979C12.4964 24.8979 11.6159 23.9339 11.6159 22.6065C11.6159 21.2791 12.4964 20.3151 13.7087 20.3151C14.9209 20.3151 15.8174 21.2791 15.8174 22.6065C15.8174 23.9339 14.9302 24.8979 13.7087 24.8979ZM13.7087 20.6559C12.6776 20.6559 11.9569 21.4575 11.9569 22.6065C11.9569 23.7555 12.6776 24.5571 13.7087 24.5571C14.7397 24.5571 15.4751 23.7555 15.4751 22.6065C15.4751 21.4575 14.749 20.6559 13.7087 20.6559Z" fill="#FF6D1F"/>
<path d="M26.8382 26.6181H23.9048L22.4288 24.4199L20.9821 26.6181H18.0261L20.7757 22.6638L18.0981 18.5922H21.0794L22.3662 20.7784L23.6677 18.5922H26.721L24.0327 22.4521L26.8369 26.6168L26.8382 26.6181ZM24.0873 26.2773H26.1974L23.6211 22.4507L26.0696 18.9344H23.8635L22.3662 21.4508L20.8862 18.9344H18.7322L21.1899 22.6704L18.6815 26.2773H20.7996L22.4275 23.8035L24.0887 26.2773H24.0873Z" fill="#FF6D1F"/>
<path d="M41.5504 26.6181H38.6943L37.8031 24.6662H33.8879L33.0274 26.6181H30.1699L35.6996 15.0426H36.0073L41.553 26.6181H41.5504ZM38.9127 26.2773H41.0082L35.8515 15.5126L30.7094 26.2773H32.8036L33.6641 24.3254H38.0215L38.9127 26.2773ZM37.466 23.0073H34.2369L34.3422 22.7676C34.6459 22.0793 35.0109 21.1845 35.304 20.4669C35.4585 20.0874 35.5997 19.7439 35.7089 19.4816L35.8808 19.0729L36.0273 19.4923C36.3151 20.3138 36.7387 21.355 37.3608 22.7689L37.466 23.0086V23.0073ZM34.7591 22.6664H36.9438C36.4709 21.5866 36.1192 20.7292 35.8568 20.0209C35.7849 20.1966 35.7049 20.391 35.621 20.596C35.3599 21.2365 35.0415 22.0154 34.7591 22.6664Z" fill="#FF6D1F"/>
<path d="M44.7553 30H42.123V18.5936H44.5435L44.5995 19.3738C45.127 18.776 46.0195 18.3779 46.9214 18.3779C49.1314 18.3779 50.6754 20.1167 50.6754 22.6052C50.6754 25.0937 49.1567 26.8325 46.984 26.8325C45.9796 26.8325 45.2176 26.4251 44.754 25.9697C44.754 26.0177 44.7567 26.0696 44.7567 26.1242V29.9987L44.7553 30ZM42.4641 29.6578H44.413V26.1242C44.413 25.7221 44.3704 25.5157 44.3704 25.5144L44.3277 25.3093H44.6621L44.7127 25.3879C45.0364 25.8978 45.8237 26.4917 46.9827 26.4917C48.9556 26.4917 50.333 24.8939 50.333 22.6052C50.333 20.3164 48.9302 18.7187 46.9214 18.7187C45.9329 18.7187 44.9285 19.2713 44.5848 20.0036L44.5382 20.1021H44.3211L44.2691 20.0422C44.2145 19.9796 44.2238 19.9144 44.2358 19.8385C44.2478 19.7572 44.2691 19.6041 44.2598 19.4177L44.2252 18.9344H42.4641V29.6578ZM46.5071 24.8979C45.1843 24.8979 44.4916 23.7449 44.4916 22.6065C44.4916 21.9062 44.7074 21.315 45.1163 20.897C45.484 20.5215 45.9769 20.3151 46.5071 20.3151C47.6847 20.3151 48.508 21.2578 48.508 22.6065C48.508 23.9553 47.6847 24.8979 46.5071 24.8979ZM46.5071 20.656C45.7012 20.656 44.8326 21.2658 44.8326 22.6065C44.8326 23.9473 45.7012 24.5571 46.5071 24.5571C47.4995 24.5571 48.1656 23.7729 48.1656 22.6065C48.1656 21.4402 47.4836 20.656 46.5071 20.656Z" fill="#FF6D1F"/>
<path d="M54.5508 30H51.9185V18.5936H54.339L54.3949 19.3738C54.9224 18.776 55.8136 18.3779 56.7168 18.3779C58.9268 18.3779 60.4708 20.1167 60.4708 22.6052C60.4708 25.0937 58.9521 26.8325 56.7794 26.8325C55.775 26.8325 55.013 26.4251 54.5494 25.9697C54.5494 26.0177 54.5521 26.0696 54.5521 26.1242V29.9987L54.5508 30ZM52.2595 29.6578H54.2097V26.1242C54.2097 25.7221 54.1671 25.5157 54.1671 25.5144L54.1245 25.3093H54.4588L54.5095 25.3879C54.8332 25.8978 55.6205 26.4917 56.7794 26.4917C58.7523 26.4917 60.1297 24.8939 60.1297 22.6052C60.1297 20.3164 58.727 18.7187 56.7181 18.7187C55.7297 18.7187 54.7253 19.2713 54.3816 20.0036L54.335 20.1021H54.1178L54.0659 20.0422C54.0112 19.9796 54.0206 19.9144 54.0326 19.8385C54.0445 19.7572 54.0659 19.6041 54.0565 19.4177L54.0219 18.9344H52.2608V29.6578H52.2595ZM56.3012 24.8979C55.771 24.8979 55.2781 24.6916 54.9104 24.3161C54.5015 23.898 54.2857 23.3069 54.2857 22.6065C54.2857 21.9062 54.5015 21.315 54.9104 20.897C55.2781 20.5215 55.771 20.3151 56.3012 20.3151C57.4788 20.3151 58.3021 21.2578 58.3021 22.6065C58.3021 23.9553 57.4801 24.8979 56.3012 24.8979ZM56.3012 20.656C55.4952 20.656 54.6267 21.2658 54.6267 22.6065C54.6267 23.9473 55.4952 24.5571 56.3012 24.5571C57.2936 24.5571 57.9597 23.7729 57.9597 22.6065C57.9597 21.4402 57.2776 20.656 56.3012 20.656Z" fill="#FF6D1F"/>
</svg>
