<svg width="30" height="27" viewBox="0 0 30 27" fill="none" xmlns="http://www.w3.org/2000/svg">
<path d="M27.7736 2.99576L27.5578 3.11825C27.5578 3.11825 27.5458 3.12491 27.5391 3.12757L27.2367 3.25539C27.1302 3.29666 27.0169 3.33261 26.897 3.36457C26.893 3.36457 26.8904 3.36723 26.8864 3.36856L26.7279 3.41117C26.163 3.55097 25.6422 3.79462 25.1786 4.1368C25.1746 4.13946 25.1719 4.14213 25.1679 4.14346L25.096 4.20471L25.0547 4.24864C25.0547 4.24864 25.048 4.25663 25.044 4.25929C25.0107 4.28992 24.9828 4.32453 24.9614 4.36448L24.9361 4.40975C24.9335 4.42306 24.9295 4.43504 24.9255 4.4457L24.9175 4.47099C24.9135 4.49895 24.9055 4.52292 24.8988 4.54289C24.8908 4.83448 25.1919 5.05549 25.3744 5.16334L26.2856 5.69858C26.3442 5.68127 26.4042 5.66263 26.4681 5.64932L26.604 5.61204C27.1848 5.45226 27.635 5.14603 27.7509 4.83448C27.7669 4.79054 27.7749 4.7466 27.7749 4.70266C27.7749 4.70133 27.7749 4.69867 27.7749 4.69734V2.99709L27.7736 2.99576Z" fill="#E55617"/>
<path d="M10.4281 5.79708C10.4281 5.79708 10.4281 5.79708 10.4294 5.79708C10.5067 5.85034 10.5879 5.90094 10.6718 5.94754C10.9649 6.11663 11.2713 6.24312 11.5857 6.32833L11.8468 6.40023C11.8548 6.40156 11.8614 6.40422 11.8681 6.40688C12.0479 6.45748 12.2251 6.51739 12.3943 6.5853L12.4769 6.54003C12.4769 6.54003 12.4849 6.5347 12.4889 6.53337C12.698 6.4162 12.8832 6.26708 13.043 6.08734C13.1789 5.93955 13.2562 5.75181 13.2628 5.55609C13.2628 5.42029 13.2229 5.28182 13.1483 5.16066C12.9764 4.90102 12.7353 4.68134 12.4556 4.53088C12.1772 4.37377 11.8814 4.25261 11.5737 4.16873L11.3179 4.0955C10.9729 3.99698 10.6425 3.86117 10.3308 3.69208V5.65329C10.3428 5.71054 10.3774 5.76114 10.4267 5.79442L10.4281 5.79708Z" fill="#D64505"/>
<path d="M24.8497 6.03409C24.8497 6.03409 24.8497 6.03409 24.8484 6.03409C24.1836 5.64798 23.8333 5.08478 23.8853 4.48563C23.8826 4.44036 23.8826 4.39509 23.8866 4.35116C23.8866 4.3445 23.8879 4.33917 23.8892 4.33252C23.8972 4.28991 23.9092 4.24597 23.9252 4.2007V4.16742C23.9252 4.14345 23.9292 4.11815 23.9372 4.09685C23.9665 4.0183 24.0051 3.9424 24.0518 3.87051C24.1157 3.76532 24.1943 3.6628 24.2849 3.57226L24.3701 3.49104C24.4194 3.44444 24.4714 3.40317 24.5287 3.36323C25.0922 2.94782 25.7276 2.64691 26.4123 2.47383L26.5708 2.43388C27.141 2.27677 27.5899 1.96921 27.7098 1.65233C27.7245 1.61238 27.7325 1.56978 27.7325 1.5285C27.7071 1.31148 27.5779 1.11975 27.3834 1.01457C27.3768 1.01057 27.3701 1.00791 27.3648 1.00258L27.2755 0.944001C27.2755 0.944001 27.2702 0.941338 27.2675 0.938675C27.0824 0.830829 26.8812 0.744285 26.6667 0.679045C26.1299 0.535249 25.5531 0.513946 25.0042 0.621793C24.5233 0.69369 24.0771 0.918704 23.7374 1.25689L23.6215 1.39669C22.324 2.8666 20.2112 3.25538 18.4781 2.34867L14.531 0.0585938L10.3388 2.49113C10.3388 2.49113 10.3388 2.49513 10.3388 2.49646C10.3441 2.50445 10.3481 2.51377 10.3521 2.52309C10.3561 2.52708 10.3614 2.53241 10.3654 2.5364C10.392 2.56569 10.4134 2.58567 10.432 2.59898C10.5066 2.65224 10.5905 2.70683 10.6718 2.75609C10.6745 2.75609 10.6758 2.75875 10.6785 2.76008C10.9675 2.92252 11.2739 3.04768 11.5896 3.13156L11.8441 3.20212C12.2291 3.30464 12.6047 3.4551 12.9577 3.64815C13.3867 3.87983 13.753 4.21801 14.0168 4.62676C14.4271 5.29648 14.3392 6.15792 13.8076 6.72777C13.5799 6.98341 13.3108 7.20177 13.0097 7.37352L12.7459 7.51466C12.6926 7.53995 12.642 7.56392 12.5914 7.58389C12.5874 7.58522 12.5821 7.58655 12.5781 7.58922C11.6189 7.97933 10.5706 8.11114 9.54215 7.97001C8.8481 7.89278 8.18071 7.68375 7.56393 7.34823C7.23622 7.16715 6.94715 6.93015 6.70603 6.64256L6.64609 6.568C6.64609 6.568 6.64076 6.56268 6.63809 6.56001C6.46625 6.36163 6.26376 6.1952 6.0333 6.06605C5.92407 6.00214 5.8095 5.94489 5.69228 5.89429C5.36857 5.76381 5.01289 5.72786 4.6652 5.79177L0.466309 8.23496L14.6269 16.406L28.7129 8.23363L24.8497 6.03276V6.03409Z" fill="#FF6D1F"/>
<path d="M29.2483 9.08975L15.1223 17.2408V26.6048L29.2483 18.4538V9.08975Z" fill="#E55617"/>
<path d="M14.126 17.2408L0 9.08975V18.4538L14.126 26.6048V17.2408Z" fill="#D64505"/>
</svg>
