<svg width="67" height="68" viewBox="0 0 67 68" fill="none" xmlns="http://www.w3.org/2000/svg">
<path d="M33.5 58.761C27.7149 58.7603 21.9373 58.3465 16.2111 57.5229C14.6407 57.2901 13.1869 56.5583 12.0643 55.4358C10.9418 54.3132 10.21 52.8594 9.9772 51.289C8.32856 39.8269 8.32856 28.1879 9.9772 16.7258C10.21 15.1554 10.9418 13.7015 12.0643 12.579C13.1869 11.4564 14.6407 10.7247 16.2111 10.4918C27.6732 8.84321 39.3123 8.84321 50.7744 10.4918C52.3447 10.7247 53.7986 11.4564 54.9212 12.579C56.0437 13.7015 56.7754 15.1554 57.0083 16.7258C58.6569 28.1879 58.6569 39.8269 57.0083 51.289C56.7754 52.8594 56.0437 54.3132 54.9212 55.4358C53.7986 56.5583 52.3447 57.2901 50.7744 57.5229C45.053 58.3458 39.2803 58.7596 33.5 58.761Z" fill="#FE6D1F"/>
<path d="M42.2391 31.6112L27.8778 21.5904C27.4412 21.2874 26.93 21.1097 26.3996 21.0765C25.8692 21.0433 25.3398 21.1557 24.8688 21.4018C24.3977 21.6478 24.0029 22.018 23.7272 22.4723C23.4514 22.9266 23.3052 23.4476 23.3043 23.9791V44.0208C23.3052 44.5522 23.4514 45.0733 23.7272 45.5276C24.0029 45.9819 24.3977 46.3521 24.8688 46.5981C25.3398 46.8441 25.8692 46.9566 26.3996 46.9233C26.93 46.8901 27.4412 46.7124 27.8778 46.4095L42.2391 36.3886C42.6237 36.1202 42.9378 35.7628 43.1547 35.3469C43.3716 34.9311 43.4848 34.469 43.4848 33.9999C43.4848 33.5309 43.3716 33.0688 43.1547 32.6529C42.9378 32.237 42.6237 31.8797 42.2391 31.6112Z" fill="#F6FFB8"/>
</svg>
