<svg width="16" height="16" viewBox="0 0 16 16" fill="none" xmlns="http://www.w3.org/2000/svg">
<path d="M0.876433 10.3319C0.733633 10.4766 0.653564 10.6717 0.653564 10.875C0.653564 11.0782 0.733633 11.2733 0.876433 11.418L4.58199 15.1236C4.65321 15.195 4.73785 15.2518 4.83104 15.2904C4.92423 15.3291 5.02414 15.3491 5.12504 15.3491C5.22595 15.3491 5.32586 15.3291 5.41905 15.2904C5.51224 15.2518 5.59687 15.195 5.6681 15.1236L15.1237 5.66801C15.1951 5.59679 15.2518 5.51215 15.2905 5.41896C15.3292 5.32577 15.3491 5.22586 15.3491 5.12496C15.3491 5.02405 15.3292 4.92414 15.2905 4.83095C15.2518 4.73776 15.1951 4.65313 15.1237 4.5819L13.6542 3.11246C13.583 3.04098 13.4984 2.98427 13.4052 2.94558C13.312 2.90688 13.2121 2.88696 13.1112 2.88696C13.0103 2.88696 12.9103 2.90688 12.8171 2.94558C12.724 2.98427 12.6393 3.04098 12.5681 3.11246L5.12504 10.5555L3.43199 8.86246C3.28731 8.71966 3.09221 8.63959 2.88893 8.63959C2.68565 8.63959 2.49055 8.71966 2.34588 8.86246L0.876433 10.3319Z" stroke="white" stroke-linecap="round" stroke-linejoin="round"/>
</svg>
